# xmcd CD database file
#
# Track frame offsets:
#	150
#	11404
#	29302
#	37852
#	66588
#	83497
#	111834
#	127145
#	143370
#	156854
#	168556
#	176006
#
# Disc length: 2483 seconds
#
# Revision: 1
# Processed by: cddbd v1.4PL0 Copyright (c) Steve Scherf et al.
# Submitted via: CDex 1.50Beta7
#
DISCID=9609b10c
DTITLE=KmKlubas - ORGAnikal_cd
DYEAR=2002
DGENRE=New Age
TTITLE0=rut rut :: intrut
TTITLE1=discman :: fashion free
TTITLE2=dziedrius :: kitaip
TTITLE3=discman :: ice-infected extended
TTITLE4=virusj :: so good, so right
TTITLE5=arturas bumsteinas :: fp system 4
TTITLE6=giedrius kuprevicius :: daina apie namus
TTITLE7=liudas svirskas :: lyrics
TTITLE8=discman :: interlude
TTITLE9=rut rut :: incoloro
TTITLE10=liudas svirskas :: other insanity extent
TTITLE11=giedrius kuprevicius :: ateik, ateik...
EXTD=YEAR: 2002
EXTT0=
EXTT1=
EXTT2=
EXTT3=
EXTT4=
EXTT5=
EXTT6=
EXTT7=
EXTT8=
EXTT9=
EXTT10=
EXTT11=
PLAYORDER=
